<svg viewBox="0 0 1024 1024" xmlns="http://www.w3.org/2000/svg"><path d="m832 664c-51.012.188-96.605 23.226-127.103 59.405l-.206.25-349.123-174.573c2.817-11.136 4.433-23.92 4.433-37.08s-1.616-25.945-4.662-38.163l.228 1.082 349.137-174.558c30.806 35.476 75.98 57.78 126.364 57.78 92.27 0 167.07-74.8 167.07-167.072s-74.8-167.07-167.07-167.07-167.07 74.8-167.07 167.07c0 .326 0 .653.002.98v-.051c.092 13.192 1.702 25.962 4.66 38.205l-.232-1.14-349.144 174.56c-31.018-36.576-77.007-59.635-128.38-59.635-92.787 0-168.006 75.22-168.006 168.006s75.22 168.006 168.006 168.006c51.382 0 97.377-23.066 128.195-59.41l.2-.242 349.137 174.555c-2.615 11.097-4.114 23.84-4.114 36.93 0 92.695 75.144 167.84 167.838 167.84s167.84-75.145 167.84-167.839c0-92.691-75.146-167.836-167.84-167.836h-.17zm0-560c48.6 0 88 39.4 88 88s-39.4 88-88 88-88-39.4-88-88c.062-48.576 39.424-87.938 87.994-88zm-640 496c-48.6 0-88-39.4-88-88s39.4-88 88-88 88 39.4 88 88c-.05 48.58-39.42 87.95-87.995 88zm640 320c-48.6 0-88-39.4-88-88s39.4-88 88-88 88 39.4 88 88c-.073 48.572-39.428 87.927-87.993 88z"/></svg>